<?xml version="1.0" encoding="utf-8"?>
<!-- Generator: Adobe Illustrator 27.9.0, SVG Export Plug-In . SVG Version: 6.00 Build 0)  -->
<svg version="1.1" id="Layer_1" xmlns="http://www.w3.org/2000/svg" xmlns:xlink="http://www.w3.org/1999/xlink" x="0px" y="0px"
	 viewBox="0 0 1263.9 285" style="enable-background:new 0 0 1263.9 285;" xml:space="preserve">
<style type="text/css">
	.st0{fill:#292A2A;}
	.st1{fill:#212222;}
	.st2{fill:#1C1D1D;}
	.st3{fill:#121314;}
	.st4{fill:#0D0D0D;}
	.st5{fill:#060606;}
	.st6{fill:#333333;}
	.st7{fill:#A100FF;}
	.st8{fill:#B73BFF;}
	.st9{fill:#C562FF;}
	.st10{fill:#D489FF;}
</style>
<g>
	<path class="st0" d="M337.6,66.9h35.6v16.8c5.6-10.8,16.9-19.6,34.2-19.6c20.1,0,34,12.6,34,39.4v68h-35.6v-60.8
		c0-11.8-4.6-17.6-14.9-17.6c-10.5,0-17.7,6.4-17.7,19.8v58.6h-35.6V66.9z"/>
	<path class="st1" d="M453.1,142.5c0-24.6,20.7-34.2,55.2-34.2h9.9v-2.4c0-10-2.4-16.6-13.7-16.6c-9.7,0-13.3,5.8-14.1,12.4h-33.4
		c1.6-25.2,21.3-37.6,49.7-37.6c28.6,0,46.9,11.8,46.9,39.6v67.8h-34.6v-12.2c-5,7.6-14.1,14.6-30.8,14.6
		C469.6,173.9,453.1,164.7,453.1,142.5z M518.3,134.9v-6.4h-9.3c-14.3,0-20.7,2.8-20.7,11.4c0,6,4,9.8,12.3,9.8
		C510.7,149.7,518.3,143.9,518.3,134.9z"/>
	<path class="st2" d="M571.3,66.9h35.6v16.8c5.6-10.8,16.9-19.6,34.2-19.6c20.1,0,34,12.6,34,39.4v68h-35.6v-60.8
		c0-11.8-4.6-17.6-14.9-17.6c-10.5,0-17.7,6.4-17.7,19.8v58.6h-35.6V66.9z"/>
	<path class="st3" d="M687.2,120.5v-1.6c0-33.6,24.8-54.8,57-54.8c32,0,56.6,20.6,56.6,53.8v1.6c0,34-24.8,54.4-56.8,54.4
		C712,173.9,687.2,154.3,687.2,120.5z M764.7,119.9v-1.6c0-17.6-7-27.4-20.5-27.4c-13.3,0-20.7,9.4-20.7,27v1.6
		c0,18,7,27.8,20.7,27.8C757.5,147.3,764.7,137.3,764.7,119.9z"/>
	<path class="st4" d="M819.1,91.3H806V66.9h13.1v-9.2c0-26,16.1-38.4,40.5-38.4c6.6,0,11.3,0.8,15.9,2v26.2
		c-2.6-0.8-5.4-1.2-9.3-1.2c-8.1,0-11.7,4.6-11.7,11.4v9.2h21.1v24.4h-21.1v80.2h-35.4V91.3z"/>
	<path class="st5" d="M885.1,38.5c0-10.6,8.3-18.6,19.5-18.6s19.7,8,19.7,18.6c0,10.6-8.5,18.4-19.7,18.4S885.1,49.1,885.1,38.5z
		 M886.9,66.9h35.6v104.6h-35.6V66.9z"/>
	<path d="M977.5,155.3v16.2h-35.6V20.9h35.6v61.6c6-10,16.7-18.4,32.4-18.4c24.2,0,43.9,18.4,43.9,54.2v1.6c0,36-19.7,54-44.1,54
		C994.2,173.9,982.7,166.5,977.5,155.3z M1017.7,119.9v-1.6c0-18.4-7.9-27.2-20.5-27.2c-12.9,0-20.7,9.4-20.7,27v1.6
		c0,17.8,7.8,26.8,20.7,26.8C1010.5,146.5,1017.7,137.1,1017.7,119.9z"/>
	<path d="M1061.6,120.5v-1.6c0-33.6,24.8-54.8,56.2-54.8c28.4,0,52.9,16.4,52.9,54v9.4h-73.1c1,13.8,8.9,21.8,21.7,21.8
		c11.7,0,16.7-5.4,18.1-12.4h33.4c-3.2,23.6-21.3,37-52.7,37C1085.4,173.9,1061.6,154.7,1061.6,120.5z M1136.1,107.3
		c-0.6-12.6-6.8-19.6-18.3-19.6c-10.7,0-18.1,7-19.9,19.6H1136.1z"/>
	<path d="M1183.4,66.9h35.6v20.8c6.6-15.6,17.5-22.4,33.6-22.2v33.4c-21.7-0.6-33.6,6.2-33.6,23v49.6h-35.6V66.9z"/>
</g>
<g>
	<path class="st6" d="M7.2,254.8v-20.9H1.6v-8.1h5.6v-8.9h12v8.9h9.2v8.1h-9.2v19.9c0,3.3,1.8,4.9,4.8,4.9c1.8,0,3.2-0.2,4.6-0.8
		v8.8c-1.7,0.6-4.1,1.1-7.3,1.1C12.1,267.8,7.2,263.4,7.2,254.8z"/>
	<path class="st6" d="M34.1,246.9v-0.6c0-13,9.8-21.4,22.4-21.4c11.3,0,21.3,6.2,21.3,21v3.2H46.4c0.3,6.9,4.3,10.8,10.8,10.8
		c5.6,0,8.3-2.3,9.1-5.8h11.4c-1.4,8.9-8.9,13.9-20.9,13.9C43.7,267.9,34.1,260.1,34.1,246.9z M66.1,241.9c-0.4-6.2-3.8-9.2-9.5-9.2
		c-5.4,0-9.1,3.4-10,9.2H66.1z"/>
	<path class="st6" d="M83.1,246.9v-0.6c0-13.3,10.1-21.4,22.5-21.4c10.1,0,19.4,4.2,20.5,16h-11.4c-0.8-4.8-3.9-7-8.8-7
		c-6.3,0-10.4,4.4-10.4,12.3v0.6c0,8.3,3.9,12.5,10.7,12.5c4.8,0,8.8-2.7,9.3-8h10.9c-0.7,9.8-8.2,16.5-20.9,16.5
		C92.8,267.9,83.1,260.4,83.1,246.9z"/>
	<path class="st6" d="M134,207.1h12.1v25.2c2.2-4.1,6.9-7.5,14.2-7.5c8.6,0,14.7,4.9,14.7,15.9V267h-12.1v-24.6
		c0-5.6-2.3-8.3-7.7-8.3c-5.2,0-9.1,3-9.1,9.1V267H134V207.1z"/>
	<path class="st6" d="M185.3,225.8h12.1v6.5c2.2-4.1,6.9-7.5,14.2-7.5c8.6,0,14.7,4.9,14.7,15.9V267h-12.1v-24.6
		c0-5.6-2.3-8.3-7.7-8.3c-5.2,0-9.1,3-9.1,9.1V267h-12.1V225.8z"/>
	<path class="st6" d="M234,246.8v-0.6c0-12.9,9.9-21.3,23-21.3S280,233.1,280,246v0.6c0,13-9.9,21.3-23,21.3
		C243.9,267.9,234,259.7,234,246.8z M267.7,246.7v-0.6c0-7.9-3.9-12.6-10.7-12.6c-6.7,0-10.7,4.6-10.7,12.4v0.6
		c0,7.9,3.8,12.6,10.7,12.6C263.8,259.2,267.7,254.5,267.7,246.7z"/>
	<path class="st6" d="M288.4,207.1h12V267h-12V207.1z"/>
	<path class="st6" d="M308.8,246.8v-0.6c0-12.9,9.9-21.3,23-21.3s22.9,8.3,22.9,21.1v0.6c0,13-9.9,21.3-23,21.3
		C318.7,267.9,308.8,259.7,308.8,246.8z M342.5,246.7v-0.6c0-7.9-3.9-12.6-10.7-12.6c-6.7,0-10.7,4.6-10.7,12.4v0.6
		c0,7.9,3.8,12.6,10.7,12.6C338.6,259.2,342.5,254.5,342.5,246.7z"/>
	<path class="st6" d="M360.5,267.9h12c0.8,3.6,3.5,6,9.7,6c7.3,0,11-3.6,11-10.1v-6.2c-2.4,4-7.6,7.6-14,7.6c-10.6,0-19-7.5-19-19.7
		v-0.6c0-11.8,8.3-20.1,19.2-20.1c7.1,0,11.3,2.9,13.9,7.1v-6.1h12v38c-0.1,12.2-8.7,18.4-23,18.4
		C368.1,282.2,361.7,276.4,360.5,267.9z M393.6,245.3v-0.6c0-7-3.9-11.3-10.5-11.3c-6.8,0-10.5,4.6-10.5,11.3v0.6
		c0,6.9,4.3,11.1,10.3,11.1C389.1,256.6,393.6,252.3,393.6,245.3z"/>
	<path class="st6" d="M429.1,262.8l-17.4-37h13l10.6,24.7l9.8-24.7h11.6L433.1,281h-11.7L429.1,262.8z"/>
	<path class="st6" d="M479.1,246.9v-0.6c0-13.3,10.1-21.4,22.5-21.4c10.1,0,19.4,4.2,20.5,16h-11.4c-0.8-4.8-3.9-7-8.8-7
		c-6.3,0-10.4,4.4-10.4,12.3v0.6c0,8.3,3.9,12.5,10.7,12.5c4.8,0,8.8-2.7,9.3-8h10.9c-0.7,9.8-8.2,16.5-20.9,16.5
		C488.8,267.9,479.1,260.4,479.1,246.9z"/>
	<path class="st6" d="M527.3,246.8v-0.6c0-12.9,9.9-21.3,23-21.3s22.9,8.3,22.9,21.1v0.6c0,13-9.9,21.3-23,21.3
		C537.2,267.9,527.3,259.7,527.3,246.8z M561,246.7v-0.6c0-7.9-3.9-12.6-10.7-12.6c-6.7,0-10.7,4.6-10.7,12.4v0.6
		c0,7.9,3.8,12.6,10.7,12.6C557.1,259.2,561,254.5,561,246.7z"/>
	<path class="st6" d="M581.4,225.8h12.1v6.5c2.2-4.1,6.9-7.5,14.2-7.5c8.6,0,14.7,4.9,14.7,15.9V267h-12.1v-24.6
		c0-5.6-2.3-8.3-7.7-8.3c-5.2,0-9.1,3-9.1,9.1V267h-12.1V225.8z"/>
	<path class="st6" d="M629.5,254.1h11.3c0.5,3.7,2.4,5.8,7.7,5.8c4.7,0,6.8-1.7,6.8-4.5s-2.6-4-8.8-4.9
		c-11.6-1.7-16.1-4.8-16.1-12.8c0-8.6,8.3-12.8,17.3-12.8c9.7,0,16.9,3.3,18,12.8h-11.1c-0.7-3.4-2.7-5-6.8-5
		c-3.9,0-6.2,1.7-6.2,4.3c0,2.6,2.1,3.6,8.4,4.5c10.9,1.5,16.9,4.1,16.9,12.9c0,8.9-6.8,13.5-18.4,13.5
		C636.8,267.9,630,263,629.5,254.1z"/>
	<path class="st6" d="M674.3,252.3v-26.5h12v25c0,5.6,2.4,8.3,7.6,8.3c5.1,0,9.1-3,9.1-9.1v-24.2h12V267h-12v-6.5
		c-2.3,4.2-6.7,7.3-13.9,7.3C680.6,267.9,674.3,263.1,674.3,252.3z"/>
	<path class="st6" d="M726,207.1h12V267h-12V207.1z"/>
	<path class="st6" d="M750.9,254.8v-20.9h-5.6v-8.1h5.6v-8.9h12v8.9h9.2v8.1h-9.2v19.9c0,3.3,1.8,4.9,4.8,4.9c1.8,0,3.2-0.2,4.6-0.8
		v8.8c-1.7,0.6-4.1,1.1-7.3,1.1C755.8,267.8,750.9,263.4,750.9,254.8z"/>
	<path class="st6" d="M779.9,214c0-3.5,3-6.2,6.8-6.2c3.9,0,6.9,2.7,6.9,6.2s-3,6.2-6.9,6.2C782.9,220.2,779.9,217.5,779.9,214z
		 M780.8,225.8h12V267h-12V225.8z"/>
	<path class="st6" d="M804,225.8h12.1v6.5c2.2-4.1,6.9-7.5,14.2-7.5c8.6,0,14.7,4.9,14.7,15.9V267h-12.1v-24.6
		c0-5.6-2.3-8.3-7.7-8.3c-5.2,0-9.1,3-9.1,9.1V267H804V225.8z"/>
	<path class="st6" d="M852.9,267.9h12c0.8,3.6,3.5,6,9.7,6c7.3,0,11-3.6,11-10.1v-6.2c-2.4,4-7.6,7.6-14,7.6c-10.6,0-19-7.5-19-19.7
		v-0.6c0-11.8,8.3-20.1,19.2-20.1c7.1,0,11.3,2.9,13.9,7.1v-6.1h12v38c-0.1,12.2-8.7,18.4-23,18.4
		C860.5,282.2,854.1,276.4,852.9,267.9z M886,245.3v-0.6c0-7-3.9-11.3-10.5-11.3c-6.8,0-10.5,4.6-10.5,11.3v0.6
		c0,6.9,4.3,11.1,10.3,11.1C881.6,256.6,886,252.3,886,245.3z"/>
	<path class="st6" d="M923.7,254.1H935c0.5,3.7,2.4,5.8,7.7,5.8c4.7,0,6.8-1.7,6.8-4.5s-2.6-4-8.8-4.9c-11.6-1.7-16.1-4.8-16.1-12.8
		c0-8.6,8.3-12.8,17.3-12.8c9.7,0,16.9,3.3,18,12.8h-11.1c-0.7-3.4-2.7-5-6.8-5c-3.9,0-6.2,1.7-6.2,4.3c0,2.6,2.1,3.6,8.4,4.5
		c10.9,1.5,16.9,4.1,16.9,12.9c0,8.9-6.8,13.5-18.4,13.5C931,267.9,924.1,263,923.7,254.1z"/>
	<path class="st6" d="M966.1,246.9v-0.6c0-13,9.8-21.4,22.4-21.4c11.3,0,21.3,6.2,21.3,21v3.2h-31.5c0.3,6.9,4.3,10.8,10.8,10.8
		c5.6,0,8.3-2.3,9.1-5.8h11.4c-1.4,8.9-8.9,13.9-20.9,13.9C975.7,267.9,966.1,260.1,966.1,246.9z M998.1,241.9
		c-0.4-6.2-3.8-9.2-9.5-9.2c-5.4,0-9.1,3.4-10,9.2H998.1z"/>
	<path class="st6" d="M1017.8,225.8h12.1v7.9c2.8-5.5,7-8.4,14.1-8.5v10.6c-8.9-0.1-14.1,2.7-14.1,10.6V267h-12.1V225.8z"/>
	<path class="st6" d="M1048.1,225.8h12.9l10.4,29.5l10.3-29.5h11.7l-15.9,41.2h-13.6L1048.1,225.8z"/>
	<path class="st6" d="M1099.4,214c0-3.5,3-6.2,6.8-6.2c3.9,0,6.9,2.7,6.9,6.2s-3,6.2-6.9,6.2C1102.5,220.2,1099.4,217.5,1099.4,214z
		 M1100.4,225.8h12V267h-12V225.8z"/>
	<path class="st6" d="M1120.8,246.9v-0.6c0-13.3,10.1-21.4,22.5-21.4c10.1,0,19.4,4.2,20.5,16h-11.4c-0.8-4.8-3.9-7-8.8-7
		c-6.3,0-10.4,4.4-10.4,12.3v0.6c0,8.3,3.9,12.5,10.7,12.5c4.8,0,8.8-2.7,9.3-8h10.9c-0.7,9.8-8.2,16.5-20.9,16.5
		C1130.5,267.9,1120.8,260.4,1120.8,246.9z"/>
	<path class="st6" d="M1169,246.9v-0.6c0-13,9.8-21.4,22.4-21.4c11.3,0,21.3,6.2,21.3,21v3.2h-31.5c0.3,6.9,4.3,10.8,10.8,10.8
		c5.6,0,8.3-2.3,9.1-5.8h11.4c-1.4,8.9-8.9,13.9-20.9,13.9C1178.6,267.9,1169,260.1,1169,246.9z M1201,241.9
		c-0.4-6.2-3.8-9.2-9.5-9.2c-5.4,0-9.1,3.4-10,9.2H1201z"/>
	<path class="st6" d="M1217.9,254.1h11.3c0.5,3.7,2.4,5.8,7.7,5.8c4.7,0,6.8-1.7,6.8-4.5s-2.6-4-8.8-4.9
		c-11.6-1.7-16.1-4.8-16.1-12.8c0-8.6,8.3-12.8,17.3-12.8c9.7,0,16.9,3.3,18,12.8H1243c-0.7-3.4-2.7-5-6.8-5c-3.9,0-6.2,1.7-6.2,4.3
		c0,2.6,2.1,3.6,8.4,4.5c10.9,1.5,16.9,4.1,16.9,12.9c0,8.9-6.8,13.5-18.4,13.5C1225.2,267.9,1218.4,263,1217.9,254.1z"/>
</g>
<g>
	<polygon class="st7" points="278,148.5 329.9,108.5 227.8,30 227.8,77.8 267.8,108.5 227.8,139.3 227.8,187.1 278,148.5 	"/>
	<polygon class="st8" points="203,148.5 254.9,108.5 152.8,30 152.8,77.8 192.8,108.5 152.8,139.3 152.8,187.1 203,148.5 	"/>
	<polygon class="st9" points="128,148.5 179.9,108.5 77.8,30 77.8,77.8 117.8,108.5 77.8,139.3 77.8,187.1 128,148.5 	"/>
	<polygon class="st10" points="53,148.5 104.9,108.5 2.8,30 2.8,77.8 42.8,108.5 2.8,139.3 2.8,187.1 53,148.5 	"/>
</g>
<g>
</g>
<g>
</g>
<g>
</g>
<g>
</g>
<g>
</g>
</svg>
