<?xml version="1.0" encoding="utf-8"?>
<!-- Generator: Adobe Illustrator 27.9.0, SVG Export Plug-In . SVG Version: 6.00 Build 0)  -->
<svg version="1.1" id="Layer_1" xmlns="http://www.w3.org/2000/svg" xmlns:xlink="http://www.w3.org/1999/xlink" x="0px" y="0px"
	 viewBox="0 0 327.1 157" style="enable-background:new 0 0 327.1 157;" xml:space="preserve">
<style type="text/css">
	.st0{fill:#A100FF;}
	.st1{fill:#B73BFF;}
	.st2{fill:#C562FF;}
	.st3{fill:#D489FF;}
</style>
<g>
	<polygon class="st0" points="275.2,118.5 327.1,78.5 225,0 225,47.8 265,78.5 225,109.3 225,157 275.2,118.5 	"/>
	<polygon class="st1" points="200.2,118.5 252.1,78.5 150,0 150,47.8 190,78.5 150,109.3 150,157 200.2,118.5 	"/>
	<polygon class="st2" points="125.2,118.5 177.1,78.5 75,0 75,47.8 115,78.5 75,109.3 75,157 125.2,118.5 	"/>
	<polygon class="st3" points="50.2,118.5 102.1,78.5 0,0 0,47.8 40,78.5 0,109.3 0,157 50.2,118.5 	"/>
</g>
<g>
</g>
<g>
</g>
<g>
</g>
<g>
</g>
<g>
</g>
</svg>
